<svg width="487" height="487" viewBox="0 0 487 487" fill="none" xmlns="http://www.w3.org/2000/svg">
<circle cx="243.5" cy="243.5" r="242" stroke="#4D4D4D" stroke-width="3"/>
<circle cx="243.5" cy="243.5" r="229" fill="#4D4D4D" stroke="black" stroke-width="23"/>
<circle cx="346.5" cy="118.5" r="42" fill="#DFA833"/>
<circle cx="346.5" cy="118.5" r="42" fill="#DFA833"/>
<circle cx="346.5" cy="118.5" r="42" stroke="black" stroke-width="15"/>
<path d="M335.802 134L334.502 129.8C336.635 127.8 338.719 125.883 340.752 124.05C342.785 122.217 344.702 120.433 346.502 118.7C347.635 117.6 348.485 116.55 349.052 115.55C349.652 114.55 349.952 113.533 349.952 112.5C349.952 111.3 349.535 110.35 348.702 109.65C347.902 108.917 346.769 108.55 345.302 108.55C344.069 108.55 342.802 108.867 341.502 109.5C340.202 110.1 339.052 110.917 338.052 111.95L334.552 108.3C336.352 106.6 338.135 105.383 339.902 104.65C341.702 103.883 343.652 103.5 345.752 103.5C347.719 103.5 349.485 103.883 351.052 104.65C352.619 105.383 353.835 106.433 354.702 107.8C355.602 109.133 356.052 110.717 356.052 112.55C356.052 114.117 355.485 115.667 354.352 117.2C353.219 118.733 351.752 120.283 349.952 121.85C348.652 123.017 347.319 124.2 345.952 125.4C344.585 126.567 343.219 127.75 341.852 128.95H352.052L354.502 125.2L358.702 127.6L354.852 134H335.802Z" fill="black"/>
<circle cx="404.5" cy="230.5" r="42" fill="#DFA833"/>
<circle cx="404.5" cy="230.5" r="42" fill="#DFA833"/>
<circle cx="404.5" cy="230.5" r="42" stroke="black" stroke-width="15"/>
<path d="M403.86 228.35C405.226 228.35 406.343 227.983 407.21 227.25C408.076 226.483 408.51 225.516 408.51 224.35C408.51 223.15 408.026 222.216 407.06 221.55C406.126 220.883 404.91 220.55 403.41 220.55C402.143 220.516 400.876 220.75 399.61 221.25C398.343 221.716 397.31 222.35 396.51 223.15L392.96 219.7C394.226 218.266 395.793 217.216 397.66 216.55C399.526 215.883 401.476 215.55 403.51 215.55C406.843 215.55 409.426 216.333 411.26 217.9C413.126 219.433 414.06 221.4 414.06 223.8C414.06 224.833 413.843 225.816 413.41 226.75C412.976 227.683 412.36 228.483 411.56 229.15C410.793 229.816 409.91 230.3 408.91 230.6C410.91 231.033 412.493 231.866 413.66 233.1C414.86 234.333 415.46 235.883 415.46 237.75C415.46 239.616 414.993 241.25 414.06 242.65C413.16 244.016 411.86 245.083 410.16 245.85C408.46 246.616 406.426 247 404.06 247C402.293 247 400.726 246.833 399.36 246.5C398.026 246.166 396.81 245.683 395.71 245.05C394.643 244.416 393.576 243.683 392.51 242.85L395.86 238.65C397.126 239.783 398.376 240.616 399.61 241.15C400.843 241.683 402.276 241.95 403.91 241.95C405.576 241.95 406.926 241.566 407.96 240.8C408.993 240 409.51 238.95 409.51 237.65C409.51 236.35 408.96 235.3 407.86 234.5C406.793 233.7 405.343 233.3 403.51 233.3H400.36V228.35H403.86Z" fill="black"/>
<circle cx="360.5" cy="350.5" r="42" fill="#DFA833"/>
<circle cx="360.5" cy="350.5" r="42" fill="#DFA833"/>
<circle cx="360.5" cy="350.5" r="42" stroke="black" stroke-width="15"/>
<path d="M356.989 366V360.95H362.889V357.65H347.489L347.439 353.3L358.889 334.75L363.389 337.25L353.489 352.9H362.889V342.35H368.639V352.9L372.589 352.85V357.65H368.639V360.95H372.389V366H356.989Z" fill="black"/>
<circle cx="243.5" cy="404.5" r="42" fill="#DFA833"/>
<circle cx="243.5" cy="404.5" r="42" fill="#DFA833"/>
<circle cx="243.5" cy="404.5" r="42" stroke="black" stroke-width="15"/>
<path d="M238.196 401.65C239.163 401.083 240.129 400.666 241.096 400.4C242.096 400.133 243.096 400 244.096 400C245.896 400 247.529 400.4 248.996 401.2C250.496 401.966 251.696 403.116 252.596 404.65C253.496 406.15 253.946 407.966 253.946 410.1C253.946 413.633 252.846 416.333 250.646 418.2C248.479 420.033 245.496 420.95 241.696 420.95C239.829 420.95 237.979 420.616 236.146 419.95C234.346 419.25 232.713 418.25 231.246 416.95L234.796 413.2C235.929 414.133 237.113 414.85 238.346 415.35C239.613 415.85 240.813 416.1 241.946 416.1C244.046 416.1 245.629 415.6 246.696 414.6C247.763 413.566 248.296 412.133 248.296 410.3C248.296 409.1 248.029 408.083 247.496 407.25C246.963 406.383 246.246 405.733 245.346 405.3C244.446 404.866 243.479 404.65 242.446 404.65C241.413 404.65 240.346 404.9 239.246 405.4C238.146 405.866 237.129 406.616 236.196 407.65L232.746 406.05V390.55H251.496V395.6H238.196V401.65Z" fill="black"/>
<circle cx="126.5" cy="350.5" r="42" fill="#DFA833"/>
<circle cx="126.5" cy="350.5" r="42" fill="#DFA833"/>
<circle cx="126.5" cy="350.5" r="42" stroke="black" stroke-width="15"/>
<path d="M134.988 342.3C134.588 342 134.038 341.716 133.338 341.45C132.638 341.183 131.888 340.966 131.088 340.8C130.322 340.633 129.588 340.55 128.888 340.55C127.588 340.55 126.438 340.816 125.438 341.35C124.438 341.85 123.588 342.533 122.888 343.4C122.188 344.266 121.672 345.25 121.338 346.35C121.005 347.45 120.822 348.583 120.788 349.75C121.855 348.883 123.072 348.183 124.438 347.65C125.838 347.083 127.272 346.8 128.738 346.8C130.438 346.8 132.055 347.1 133.588 347.7C135.122 348.3 136.372 349.316 137.338 350.75C138.338 352.183 138.838 354.166 138.838 356.7C138.838 357.633 138.655 358.7 138.288 359.9C137.955 361.1 137.355 362.233 136.488 363.3C135.655 364.366 134.472 365.25 132.938 365.95C131.405 366.65 129.438 367 127.038 367C122.905 367 119.822 365.7 117.788 363.1C115.755 360.466 114.738 356.566 114.738 351.4C114.738 348.366 115.305 345.65 116.438 343.25C117.605 340.85 119.238 338.966 121.338 337.6C123.438 336.233 125.922 335.55 128.788 335.55C129.955 335.55 131.072 335.683 132.138 335.95C133.238 336.216 134.205 336.533 135.038 336.9C135.872 337.266 136.488 337.6 136.888 337.9L134.988 342.3ZM127.738 351.3C126.372 351.3 125.055 351.566 123.788 352.1C122.555 352.6 121.605 353.25 120.938 354.05C121.138 356.316 121.572 358.033 122.238 359.2C122.905 360.366 123.688 361.166 124.588 361.6C125.522 362 126.455 362.2 127.388 362.2C128.688 362.2 129.738 361.916 130.538 361.35C131.338 360.75 131.938 360.033 132.338 359.2C132.738 358.366 132.938 357.533 132.938 356.7C132.938 354.8 132.455 353.433 131.488 352.6C130.522 351.733 129.272 351.3 127.738 351.3Z" fill="black"/>
<circle cx="82.5" cy="230.5" r="42" fill="#DFA833"/>
<circle cx="82.5" cy="230.5" r="42" fill="#DFA833"/>
<circle cx="82.5" cy="230.5" r="42" stroke="black" stroke-width="15"/>
<path d="M94.7031 219.9C92.3365 223 90.4031 226.1 88.9031 229.2C87.4031 232.266 86.3198 235.216 85.6531 238.05C84.9865 240.883 84.6865 243.533 84.7531 246H78.9031C79.0031 243.366 79.3531 240.783 79.9531 238.25C80.5531 235.683 81.4865 233.05 82.7531 230.35C84.0531 227.616 85.7365 224.7 87.8031 221.6H76.8531L76.1531 225.1L70.9531 223.95L72.3531 216.55H94.7031V219.9Z" fill="black"/>
<circle cx="139.5" cy="118.5" r="42" fill="#DFA833"/>
<circle cx="139.5" cy="118.5" r="42" fill="#DFA833"/>
<circle cx="139.5" cy="118.5" r="42" stroke="black" stroke-width="15"/>
<path d="M139.452 103.55C141.419 103.55 143.202 103.866 144.802 104.5C146.436 105.1 147.736 106.033 148.702 107.3C149.669 108.566 150.152 110.216 150.152 112.25C150.152 113.05 149.952 113.9 149.552 114.8C149.152 115.7 148.569 116.516 147.802 117.25C147.069 117.95 146.152 118.45 145.052 118.75C146.452 119.116 147.569 119.683 148.402 120.45C149.269 121.216 149.886 122.083 150.252 123.05C150.652 123.983 150.852 124.916 150.852 125.85C150.852 128.016 150.319 129.783 149.252 131.15C148.186 132.483 146.786 133.45 145.052 134.05C143.352 134.683 141.519 135 139.552 135C137.552 135 135.686 134.683 133.952 134.05C132.219 133.45 130.819 132.483 129.752 131.15C128.686 129.783 128.152 128.016 128.152 125.85C128.152 124.916 128.336 123.983 128.702 123.05C129.102 122.083 129.719 121.216 130.552 120.45C131.419 119.683 132.552 119.116 133.952 118.75C132.852 118.45 131.919 117.95 131.152 117.25C130.419 116.516 129.852 115.7 129.452 114.8C129.052 113.9 128.852 113.05 128.852 112.25C128.852 110.216 129.336 108.566 130.302 107.3C131.269 106.033 132.552 105.1 134.152 104.5C135.752 103.866 137.519 103.55 139.452 103.55ZM139.552 121.25C137.752 121.25 136.402 121.7 135.502 122.6C134.636 123.5 134.202 124.583 134.202 125.85C134.202 127.183 134.686 128.266 135.652 129.1C136.652 129.9 137.919 130.3 139.452 130.3C141.052 130.3 142.336 129.9 143.302 129.1C144.269 128.266 144.752 127.183 144.752 125.85C144.752 124.583 144.319 123.5 143.452 122.6C142.619 121.7 141.319 121.25 139.552 121.25ZM139.452 108.25C137.952 108.25 136.786 108.616 135.952 109.35C135.119 110.083 134.702 111.05 134.702 112.25C134.702 113.45 135.119 114.466 135.952 115.3C136.786 116.133 137.952 116.55 139.452 116.55C140.986 116.55 142.169 116.133 143.002 115.3C143.836 114.466 144.252 113.45 144.252 112.25C144.252 111.05 143.836 110.083 143.002 109.35C142.169 108.616 140.986 108.25 139.452 108.25Z" fill="black"/>
<circle cx="243.5" cy="169.5" r="42" fill="#DFA833"/>
<circle cx="243.5" cy="169.5" r="42" fill="#DFA833"/>
<circle cx="243.5" cy="169.5" r="42" stroke="black" stroke-width="15"/>
<path d="M242.697 152.75H246.447V177.95H253.947V183H232.697V177.95H240.647V161.3L234.747 166.2L231.447 162.1L242.697 152.75Z" fill="black"/>
</svg>
